<svg xmlns="http://www.w3.org/2000/svg" viewBox="-0.5 -1.5 20.00 22.00"><defs><style>.cls-1{fill:#fff;}</style></defs><title>Recurso 6</title><g id="Capa_2" data-name="Capa 2"><g id="Capa_1-2" data-name="Capa 1"><path class="cls-1" d="M3.85,0A3.84,3.84,0,0,0,1.72.75C-.86,2.46.16,4.52.4,4.93L6.08,1.14A2.87,2.87,0,0,0,3.85,0Z"/><path class="cls-1" d="M12.33,1.14,18,4.93c.23-.41,1.25-2.47-1.32-4.18S12.62.76,12.33,1.14Z"/><polygon class="cls-1" points="8.62 1.97 9.76 1.97 9.76 1.16 10.56 1.16 10.56 0.03 7.98 0.03 7.98 1.16 8.62 1.16 8.62 1.97"/><path class="cls-1" d="M12.53,14c.17,0,.6,0,.74-.21s0-.43-.18-.78l-3.25-2V5.72a.92.92,0,0,0-.61-.38.91.91,0,0,0-.69.38v6.07Z"/><path class="cls-1" d="M4.33,19a.61.61,0,0,0,.07.52c.13.16.39.22.78.17l.58-1-.86-.42-.09.11Z"/><path class="cls-1" d="M13.9,19.68c.39.05.65,0,.78-.17a.61.61,0,0,0,.07-.52l-.57-.75-.86.42Z"/><path class="cls-1" d="M9.48,2a8.63,8.63,0,1,0,8.63,8.63A8.63,8.63,0,0,0,9.48,2Zm0,16.1a7.33,7.33,0,0,1-7.19-7.47A7.34,7.34,0,0,1,9.48,3.18a7.34,7.34,0,0,1,7.19,7.48A7.33,7.33,0,0,1,9.48,18.13Z"/></g></g></svg>