<svg xmlns="http://www.w3.org/2000/svg" viewBox="0 0 22.95 21.8"><defs><style>.cls-1{fill:#7f7f7f;}</style></defs><title>apps</title><g id="Capa_2" data-name="Capa 2"><g id="Capa_1-2" data-name="Capa 1"><path class="cls-1" d="M-262.95-70.73l2.9-.7-.24-3.23-2.66-.92-.72-1.84,1.44-2.08-2.65-2.31-2.18,1.16-2.17-.93-.6-2.42h-3.63l-.72,2.54-2.06,1-2.41-1.16-1.93,1.85,1.2,2.31-1,2.07-2.66.69v3l2.66.93,1,2.07-1.45,2.31,2.18,2.08,2.41-1.39,2.18.93.72,2.53H-270l1-2.53,1.93-.7,2.42.93,2.17-2.08-1.2-2.31ZM-271.53-68a5.2,5.2,0,0,1-5.31-5.08,5.2,5.2,0,0,1,5.31-5.07,5.2,5.2,0,0,1,5.32,5.07A5.2,5.2,0,0,1-271.53-68Z" transform="translate(283 84)"/></g></g></svg>