<svg xmlns="http://www.w3.org/2000/svg" viewBox="0 0 20.47 25.44"><defs><style>.cls-1{fill:#7f7f7f;}</style></defs><title>audit-movil</title><g id="Capa_2" data-name="Capa 2"><g id="Capa_1-2" data-name="Capa 1"><path class="cls-1" d="M15.65,25.44H4.82A4.82,4.82,0,0,1,0,20.63V8A4.82,4.82,0,0,1,4.82,3.18H15.65A4.82,4.82,0,0,1,20.47,8V20.63A4.82,4.82,0,0,1,15.65,25.44ZM4.82,4.84A3.16,3.16,0,0,0,1.66,8V20.63a3.15,3.15,0,0,0,3.16,3.15H15.65a3.16,3.16,0,0,0,3.16-3.15V8a3.17,3.17,0,0,0-3.16-3.16Z"/><rect class="cls-1" x="6.02" y="2.07" width="8.44" height="3.87" rx="1.48" ry="1.48"/><path class="cls-1" d="M10.27,0a2.42,2.42,0,1,0,2.42,2.42A2.42,2.42,0,0,0,10.27,0Zm0,4.15a1.66,1.66,0,1,1,1.66-1.66A1.66,1.66,0,0,1,10.27,4.15Z"/><path class="cls-1" d="M13.88,8.15a.8.8,0,0,0-1.13,0L9.2,11.7,7.75,10.25a.8.8,0,0,0-1.13,0l0,0a.8.8,0,0,0,0,1.13l1.93,1.93a.81.81,0,0,0,1.05.07A.79.79,0,0,0,10,13.2l3.91-3.91A.81.81,0,0,0,13.88,8.15Z"/><path class="cls-1" d="M11.5,18.15l2-1.65a.67.67,0,0,0,.08-.94l-.19-.22a.67.67,0,0,0-.94-.08l-2.18,1.83L8.05,15.26a.67.67,0,0,0-.94.08l-.18.22A.67.67,0,0,0,7,16.5l2,1.65L7,19.8a.67.67,0,0,0-.08.94l.18.22a.67.67,0,0,0,.94.09l2.18-1.84,2.18,1.84a.67.67,0,0,0,.94-.09l.19-.22a.67.67,0,0,0-.08-.94Z"/></g></g></svg>