<svg xmlns="http://www.w3.org/2000/svg" viewBox="-0.7 0 18.00 20.00"><defs><style>.cls-1{fill:#fff;}</style></defs><title>Recurso 5</title><g id="Capa_2" data-name="Capa 2"><g id="Capa_1-2" data-name="Capa 1"><path class="cls-1" d="M12.34,20.06H3.8A3.8,3.8,0,0,1,0,16.26V6.3A3.8,3.8,0,0,1,3.8,2.51h8.54A3.79,3.79,0,0,1,16.13,6.3v10A3.8,3.8,0,0,1,12.34,20.06ZM3.8,3.82A2.48,2.48,0,0,0,1.31,6.3v10A2.49,2.49,0,0,0,3.8,18.75h8.54a2.49,2.49,0,0,0,2.48-2.49V6.3a2.48,2.48,0,0,0-2.48-2.48Z"/><rect class="cls-1" x="4.74" y="1.64" width="6.65" height="3.05" rx="1.53" ry="1.53"/><path class="cls-1" d="M8.09,0A1.91,1.91,0,1,0,10,1.91,1.9,1.9,0,0,0,8.09,0Zm0,3.27A1.31,1.31,0,1,1,9.4,2,1.31,1.31,0,0,1,8.09,3.27Z"/><path class="cls-1" d="M10.94,6.43a.62.62,0,0,0-.89,0L7.25,9.22,6.11,8.08a.64.64,0,0,0-.89,0l0,0a.62.62,0,0,0,0,.89l1.52,1.52a.63.63,0,0,0,.83.06.63.63,0,0,0,.32-.17l3.08-3.09A.62.62,0,0,0,10.94,6.43Z"/><path class="cls-1" d="M9.06,14.31,10.61,13a.52.52,0,0,0,.06-.74l-.14-.18A.54.54,0,0,0,9.78,12L8.07,13.47,6.35,12a.52.52,0,0,0-.74.06l-.15.18a.52.52,0,0,0,.06.74l1.55,1.3-1.55,1.3a.52.52,0,0,0-.06.74l.15.18a.52.52,0,0,0,.74.06l1.72-1.44,1.71,1.44a.54.54,0,0,0,.75-.06l.14-.18a.52.52,0,0,0-.06-.74Z"/></g></g></svg>