<svg xmlns="http://www.w3.org/2000/svg" viewBox="0 0 64.01 10.74"><defs><style>.cls-1{fill:#cacaca;}</style></defs><title>copyright</title><g id="Capa_2" data-name="Capa 2"><g id="Capa_1-2" data-name="Capa 1"><path class="cls-1" d="M-277.63-84A5.38,5.38,0,0,0-283-78.63a5.38,5.38,0,0,0,5.37,5.37,5.38,5.38,0,0,0,5.37-5.37A5.38,5.38,0,0,0-277.63-84Zm0,10a4.67,4.67,0,0,1-4.67-4.67,4.67,4.67,0,0,1,4.67-4.67A4.67,4.67,0,0,1-273-78.63,4.67,4.67,0,0,1-277.63-74Z" transform="translate(283 84)"/><path class="cls-1" d="M-275.44-77.76a.35.35,0,0,0-.48.11,1.81,1.81,0,0,1-1.54.84,1.82,1.82,0,0,1-1.82-1.82,1.81,1.81,0,0,1,1.82-1.82,1.82,1.82,0,0,1,1.51.8.35.35,0,0,0,.49.09.34.34,0,0,0,.09-.48,2.51,2.51,0,0,0-2.09-1.11A2.52,2.52,0,0,0-280-78.63a2.52,2.52,0,0,0,2.52,2.52,2.52,2.52,0,0,0,2.13-1.16.37.37,0,0,0-.11-.49Z" transform="translate(283 84)"/><path class="cls-1" d="M-268.24-83h.9l2.29,5.16c.2.45.43,1.07.43,1.07h0s.24-.62.44-1.07l2.3-5.16h.88l.7,8.77h-.86l-.49-6.13c0-.48,0-1.23,0-1.23h0s-.26.78-.46,1.23l-2.06,4.5H-265l-2.06-4.5c-.2-.44-.47-1.25-.47-1.25h0s0,.77,0,1.25l-.49,6.13h-.86Z" transform="translate(283 84)"/><path class="cls-1" d="M-254.94-83.17a4.43,4.43,0,0,1,4.46,4.48,4.49,4.49,0,0,1-4.46,4.59,4.5,4.5,0,0,1-4.47-4.59A4.43,4.43,0,0,1-254.94-83.17Zm0,8.28a3.66,3.66,0,0,0,3.57-3.8,3.59,3.59,0,0,0-3.57-3.68,3.58,3.58,0,0,0-3.57,3.68A3.65,3.65,0,0,0-254.94-74.89Z" transform="translate(283 84)"/><path class="cls-1" d="M-242-83h.86v8.77H-242Z" transform="translate(283 84)"/><path class="cls-1" d="M-244.76-78.87v0a2,2,0,0,0,1.11-1.91A2.16,2.16,0,0,0-246-83h-3v8.77h3.09a2.41,2.41,0,0,0,2.64-2.45A2.14,2.14,0,0,0-244.76-78.87Zm.58,2.14A1.59,1.59,0,0,1-245.9-75h-2.25v-7.22H-246a1.39,1.39,0,0,1,1.5,1.49A1.44,1.44,0,0,1-246-79.21h-.24C-244-78.27-244.18-76.73-244.18-76.73Z" transform="translate(283 84)"/><path class="cls-1" d="M-228.51-78.16v0a3,3,0,0,1,.23.35l1.91,3.52h-1l-2.38-4.46h.27a1.64,1.64,0,0,0,1.74-1.78,1.62,1.62,0,0,0-.8-1.53,2.54,2.54,0,0,0-1.25-.21h-1.78v8h-.86V-83h2.6a3.89,3.89,0,0,1,1.65.24,2.34,2.34,0,0,1,1.33,2.26A2.34,2.34,0,0,1-228.51-78.16Zm8.61,3.9-2.69-7.55c0-.17-.08-.3-.08-.3h0l-2.77,7.85h-.91l3.23-8.76h.92l3.23,8.76ZM-234.25-75v.77h-5.18V-79h4.2v.77h-3.34V-75Zm-4.32-7.21h-.86V-83h5v.78Z" transform="translate(283 84)"/></g></g></svg>