<svg xmlns="http://www.w3.org/2000/svg" viewBox="0 0 29 27.82"><defs><style>.cls-1{fill:#7f7f7f;}.cls-2{fill:#fff;}</style></defs><title>create-new-holding</title><g id="Capa_2" data-name="Capa 2"><g id="Capa_1-2" data-name="Capa 1"><path class="cls-1" d="M25.22,25.2l.09-16.29h.48V6.3l-1.42-.25V4.62L18.56,3.43l-.11,21.5H18l.12-21.46.4,0h0L2.5,5.46V6.88H1.3V9.49l.35.36L1.56,25.43H0V27.8l.12-.12,26.64.14V25.21Zm-13.55.28-3.81,0,0-2.61,3.8,0Zm4.42-3.9-12.85.65V20.09l12.85-.88Zm0-3.33L3,18.9V17l13.09-1.11Zm0-3.8L3,15.8V13.66l13.09-1.35Zm0-3.33L3.06,12.48V10.33L16.16,8.74Zm3.58-2.36L24,9.5v2.37l-4.28-1Zm-.13,3.57,4.27.73v2.38l-4.28-1Zm4.46,10-4.28-1,0-2.15,4.27.74Zm0-3.57-4.28-1,0-2.14,4.27.73Z"/><circle class="cls-1" cx="22.84" cy="6.15" r="6.15"/><rect class="cls-2" x="22.32" y="3.23" width="1.04" height="5.84" rx="0.34" ry="0.34"/><rect class="cls-2" x="22.32" y="3.23" width="1.04" height="5.84" rx="0.34" ry="0.34" transform="translate(29 -16.69) rotate(90)"/></g></g></svg>