<svg xmlns="http://www.w3.org/2000/svg" viewBox="0 0 60.27 60.27"><defs><style>.cls-1{fill:#3fa9f5;}.cls-2{fill:#fff;}</style></defs><title>global-use-cases-card-grid</title><g id="Capa_2" data-name="Capa 2"><g id="Capa_1-2" data-name="Capa 1"><circle class="cls-1" cx="30.13" cy="30.13" r="30.13"/><path class="cls-2" d="M50.89,8.73A29.77,29.77,0,0,0,30.14.34h0a29.79,29.79,0,1,0,0,59.57h0A29.79,29.79,0,0,0,50.89,8.73ZM31.13,19.23c4.15,0,7.71-.21,10.74-.47A55,55,0,0,1,43,29.13H31.13Zm0-2V2.42A7.38,7.38,0,0,1,34.39,4a17.27,17.27,0,0,1,4.33,5.65A35.27,35.27,0,0,1,41.4,16.8C38.49,17.05,35.08,17.22,31.13,17.24Zm-2-14.82V17.24c-3.95,0-7.36-.19-10.27-.44a35.79,35.79,0,0,1,2.37-6.53C23.43,5.74,26.26,3,29.14,2.42Zm0,16.81v9.9H17.25a53.52,53.52,0,0,1,1.16-10.37C21.43,19,25,19.21,29.14,19.23Zm-13.88,9.9H2.32a27.5,27.5,0,0,1,3.47-12.5,60.85,60.85,0,0,0,10.63,1.94A56.26,56.26,0,0,0,15.26,29.13Zm0,2a56.17,56.17,0,0,0,1.15,10.56A60.24,60.24,0,0,0,5.79,43.62a27.43,27.43,0,0,1-3.47-12.5Zm2,0H29.14V41c-4.15,0-7.72.2-10.74.47A53.45,53.45,0,0,1,17.25,31.12ZM29.14,43V57.83a7.42,7.42,0,0,1-3.27-1.57,17.35,17.35,0,0,1-4.33-5.66,35.17,35.17,0,0,1-2.67-7.15C21.78,43.2,25.19,43,29.14,43Zm2,14.83V43c3.95,0,7.36.2,10.27.45A37.13,37.13,0,0,1,39,50C36.84,54.5,34,57.3,31.13,57.83Zm0-16.81v-9.9H43a53.61,53.61,0,0,1-1.16,10.37C38.84,41.22,35.28,41,31.13,41ZM45,31.12H58a27.53,27.53,0,0,1-3.47,12.5,60.85,60.85,0,0,0-10.63-1.94A55.44,55.44,0,0,0,45,31.12Zm0-2a56.07,56.07,0,0,0-1.15-10.56,60.13,60.13,0,0,0,10.63-1.95A27.63,27.63,0,0,1,58,29.13Zm4.51-19a28.06,28.06,0,0,1,3.9,4.7,63.92,63.92,0,0,1-10,1.75,37.25,37.25,0,0,0-2.9-7.88A20.28,20.28,0,0,0,36.3,3,27.75,27.75,0,0,1,49.51,10.16Zm-39.36.62a27.59,27.59,0,0,1,9.31-6.33A28.14,28.14,0,0,1,24,3,20.7,20.7,0,0,0,19.45,9.4a38.3,38.3,0,0,0-2.58,7.21,64,64,0,0,1-10-1.75A28.19,28.19,0,0,1,10.15,10.78Zm.61,39.31a28.47,28.47,0,0,1-3.9-4.7,63.72,63.72,0,0,1,10-1.75,37.72,37.72,0,0,0,2.91,7.87A20.2,20.2,0,0,0,24,57.24,27.83,27.83,0,0,1,10.76,50.09Zm39.36-.63A27.56,27.56,0,0,1,40.8,55.8a26.73,26.73,0,0,1-4.5,1.43,20.94,20.94,0,0,0,4.52-6.38,37.84,37.84,0,0,0,2.57-7.21,64,64,0,0,1,10,1.75A28.11,28.11,0,0,1,50.12,49.46Z"/></g></g></svg>