<svg xmlns="http://www.w3.org/2000/svg" viewBox="0 0 25.49 25.46"><defs><style>.cls-1{fill:#7f7f7f;}</style></defs><title>global-use-cases</title><g id="Capa_2" data-name="Capa 2"><g id="Capa_1-2" data-name="Capa 1"><path class="cls-1" d="M-261.39-80.41A12.67,12.67,0,0,0-270.25-84h0a12.75,12.75,0,0,0-9.15,3.87,12.72,12.72,0,0,0,.28,18,12.76,12.76,0,0,0,8.87,3.59h0a12.72,12.72,0,0,0,9.16-3.88A12.7,12.7,0,0,0-261.39-80.41Zm-8.44,4.48c1.77,0,3.3-.09,4.59-.2a23.11,23.11,0,0,1,.49,4.43h-5.08Zm0-.85v-6.33a3.17,3.17,0,0,1,1.4.67A7.3,7.3,0,0,1-266.58-80a15.6,15.6,0,0,1,1.14,3C-266.68-76.86-268.14-76.79-269.83-76.78Zm-.85-6.33v6.33c-1.69,0-3.15-.08-4.39-.19a16.31,16.31,0,0,1,1-2.79C-273.12-81.69-271.91-82.89-270.68-83.11Zm0,7.18v4.23h-5.08a22.42,22.42,0,0,1,.49-4.43C-274-76-272.45-75.94-270.68-75.93Zm-5.93,4.23h-5.53A11.69,11.69,0,0,1-280.66-77a25.54,25.54,0,0,0,4.54.83A23.77,23.77,0,0,0-276.61-71.7Zm0,.85a24.73,24.73,0,0,0,.49,4.52,25.34,25.34,0,0,0-4.54.83,11.66,11.66,0,0,1-1.48-5.35Zm.85,0h5.08v4.23c-1.77,0-3.3.09-4.59.21A23.21,23.21,0,0,1-275.76-70.85Zm5.08,5.08v6.34a3.28,3.28,0,0,1-1.4-.67,7.41,7.41,0,0,1-1.85-2.42,15.46,15.46,0,0,1-1.14-3.06C-273.83-65.68-272.37-65.76-270.68-65.77Zm.85,6.34v-6.34c1.69,0,3.14.09,4.39.19a16.31,16.31,0,0,1-1,2.79C-267.39-60.85-268.6-59.66-269.83-59.43Zm0-7.19v-4.23h5.08a22.53,22.53,0,0,1-.49,4.44C-266.53-66.53-268.06-66.61-269.83-66.62Zm5.93-4.23h5.53a11.69,11.69,0,0,1-1.48,5.35,25.54,25.54,0,0,0-4.54-.83A24.82,24.82,0,0,0-263.9-70.85Zm0-.85a24.62,24.62,0,0,0-.49-4.51,25.34,25.34,0,0,0,4.54-.83,11.62,11.62,0,0,1,1.48,5.34Zm1.92-8.1a11.3,11.3,0,0,1,1.67,2,26.31,26.31,0,0,1-4.28.75,15.69,15.69,0,0,0-1.24-3.36,8.54,8.54,0,0,0-1.79-2.45A11.81,11.81,0,0,1-262-79.8Zm-16.82.26a12,12,0,0,1,4-2.71,12,12,0,0,1,1.93-.61,8.94,8.94,0,0,0-1.93,2.73,16.7,16.7,0,0,0-1.1,3.08,26.31,26.31,0,0,1-4.28-.75A13.5,13.5,0,0,1-278.8-79.54Zm.27,16.8a11.36,11.36,0,0,1-1.67-2,27.5,27.5,0,0,1,4.28-.75,16,16,0,0,0,1.24,3.37,8.68,8.68,0,0,0,1.79,2.45A11.81,11.81,0,0,1-278.53-62.74Zm16.82-.27a11.68,11.68,0,0,1-4,2.71,11,11,0,0,1-1.92.61,8.94,8.94,0,0,0,1.93-2.73,16.19,16.19,0,0,0,1.1-3.08,27.5,27.5,0,0,1,4.28.75A12.26,12.26,0,0,1-261.71-63Z" transform="translate(283 84)"/></g></g></svg>