<svg xmlns="http://www.w3.org/2000/svg" viewBox="0 0 62.04 56.8"><defs><style>.cls-1{fill:#405971;}.cls-2{fill:#fff;}</style></defs><title>holding-and-operations-card-grid</title><g id="Capa_2" data-name="Capa 2"><g id="Capa_1-2" data-name="Capa 1"><polygon class="cls-1" points="58.45 50.46 58.45 12.68 59.56 12.68 59.56 6.62 56.25 6.07 56.25 2.76 42.74 0.06 42.74 49.91 41.63 49.91 41.63 0.14 42.57 0.02 42.46 0 5.51 4.96 5.51 8.27 2.76 8.27 2.76 14.34 3.58 15.16 3.58 51.28 0.55 51.28 0 51.28 0 56.8 0.28 56.52 62.04 56.52 62.04 50.46 58.45 50.46"/><polygon class="cls-2" points="36.22 42.19 6.45 43.84 6.45 38.88 36.22 36.67 36.22 42.19"/><polygon class="cls-2" points="36.22 34.47 5.89 36.12 5.89 31.71 36.22 28.95 36.22 34.47"/><polygon class="cls-2" points="36.22 25.64 5.89 28.95 5.89 23.99 36.22 20.68 36.22 25.64"/><polygon class="cls-2" points="36.22 17.92 5.89 21.23 5.89 16.27 36.22 12.41 36.22 17.92"/><polygon class="cls-2" points="44.49 12.41 54.42 14.06 54.42 19.58 44.49 17.37 44.49 12.41"/><polygon class="cls-2" points="44.22 20.68 54.15 22.33 54.15 27.85 44.22 25.64 44.22 20.68"/><polygon class="cls-2" points="54.7 43.84 44.77 41.63 44.77 36.67 54.7 38.33 54.7 43.84"/><polygon class="cls-2" points="54.7 35.57 44.77 33.36 44.77 28.4 54.7 30.05 54.7 35.57"/></g></g></svg>