<svg xmlns="http://www.w3.org/2000/svg" viewBox="0 0 271 205.2"><defs><style>.cls-1{fill:#fff;}</style></defs><title>Recurso 2</title><g id="Capa_2" data-name="Capa 2"><g id="Capa_1-2" data-name="Capa 1"><path class="cls-1" d="M62.93,74.63H14.51A14.32,14.32,0,0,0,4.24,78.71,13.27,13.27,0,0,0,0,88.61v28a13.27,13.27,0,0,0,4.24,9.9,14.32,14.32,0,0,0,10.27,4.08H62.93a14.33,14.33,0,0,0,10.28-4.08,13.3,13.3,0,0,0,4.23-9.9v-28a13.3,13.3,0,0,0-4.23-9.9A14.33,14.33,0,0,0,62.93,74.63Z"/><path class="cls-1" d="M62.93,0H14.51A14.32,14.32,0,0,0,4.24,4.08,13.29,13.29,0,0,0,0,14V42a13.26,13.26,0,0,0,4.24,9.9A14.29,14.29,0,0,0,14.51,56H62.93a14.3,14.3,0,0,0,10.28-4.09A13.28,13.28,0,0,0,77.44,42V14a13.32,13.32,0,0,0-4.23-9.91A14.33,14.33,0,0,0,62.93,0Z"/><path class="cls-1" d="M62.93,149.25H14.51a14.29,14.29,0,0,0-10.27,4.09A13.26,13.26,0,0,0,0,163.24v28a13.29,13.29,0,0,0,4.24,9.91,14.32,14.32,0,0,0,10.27,4.08H62.93a14.33,14.33,0,0,0,10.28-4.08,13.32,13.32,0,0,0,4.23-9.91v-28a13.28,13.28,0,0,0-4.23-9.9A14.3,14.3,0,0,0,62.93,149.25Z"/><path class="cls-1" d="M256.49,74.63H111.29A14.31,14.31,0,0,0,101,78.71a13.27,13.27,0,0,0-4.24,9.9v28a13.27,13.27,0,0,0,4.24,9.9,14.31,14.31,0,0,0,10.27,4.08h145.2a14.32,14.32,0,0,0,10.27-4.08,13.27,13.27,0,0,0,4.24-9.9v-28a13.27,13.27,0,0,0-4.24-9.9A14.32,14.32,0,0,0,256.49,74.63Z"/><path class="cls-1" d="M256.49,149.25H111.29A14.28,14.28,0,0,0,101,153.34a13.26,13.26,0,0,0-4.24,9.9v28a13.29,13.29,0,0,0,4.24,9.91,14.31,14.31,0,0,0,10.27,4.08h145.2a14.32,14.32,0,0,0,10.27-4.08,13.29,13.29,0,0,0,4.24-9.91v-28a13.26,13.26,0,0,0-4.24-9.9A14.09,14.09,0,0,0,256.49,149.25Z"/><path class="cls-1" d="M266.76,4.08A14.32,14.32,0,0,0,256.49,0H111.29A14.31,14.31,0,0,0,101,4.08,13.29,13.29,0,0,0,96.78,14V42a13.26,13.26,0,0,0,4.24,9.9A14.28,14.28,0,0,0,111.29,56h145.2a14.29,14.29,0,0,0,10.27-4.09A13.26,13.26,0,0,0,271,42V14A13.11,13.11,0,0,0,266.76,4.08Z"/></g></g></svg>