<svg xmlns="http://www.w3.org/2000/svg" viewBox="-5 -0.25 17.00 20.50"><defs><style>.cls-1{fill:#7f7f7f;}</style></defs><title>question-movil</title><g id="Capa_2" data-name="Capa 2"><g id="Capa_1-2" data-name="Capa 1"><path class="cls-1" d="M-280.42-69.81l-.05-.75a6.55,6.55,0,0,1,1.78-5c1.29-1.52,2-2.64,2-3.93,0-1.47-.92-2.44-2.73-2.47a5.08,5.08,0,0,0-2.9.89l-.69-1.81A7.52,7.52,0,0,1-278.89-84c3.3,0,4.79,2,4.79,4.22,0,2-1.09,3.36-2.47,5a5.66,5.66,0,0,0-1.63,4.22l0,.75Zm-.63,4a1.7,1.7,0,0,1,1.73-1.81,1.67,1.67,0,0,1,1.69,1.81A1.67,1.67,0,0,1-279.35-64,1.69,1.69,0,0,1-281-65.79Z" transform="translate(283 84)"/></g></g></svg>