<svg xmlns="http://www.w3.org/2000/svg" viewBox="-5 -1.2 17.00 19.00"><defs><style>.cls-1{fill:#fff;}</style></defs><title>Recurso 11</title><g id="Capa_2" data-name="Capa 2"><g id="Capa_1-2" data-name="Capa 1"><path class="cls-1" d="M2.32,12.73l0-.67A5.9,5.9,0,0,1,3.87,7.6C5,6.24,5.67,5.23,5.67,4.07c0-1.31-.83-2.19-2.45-2.21a4.55,4.55,0,0,0-2.6.79L0,1A6.75,6.75,0,0,1,3.69,0C6.65,0,8,1.83,8,3.79c0,1.75-1,3-2.22,4.48A5.15,5.15,0,0,0,4.3,12.06l0,.67Zm-.57,3.61A1.53,1.53,0,0,1,3.3,14.72a1.5,1.5,0,0,1,1.52,1.62,1.5,1.5,0,0,1-1.55,1.6A1.51,1.51,0,0,1,1.75,16.34Z"/></g></g></svg>