<svg xmlns="http://www.w3.org/2000/svg" viewBox="0 0 13.86 13.99"><defs><style>.cls-1{fill:#fff;}</style></defs><title>Recurso 3</title><g id="Capa_2" data-name="Capa 2"><g id="Capa_1-2" data-name="Capa 1"><path class="cls-1" d="M12,13.55,7.63,9.26a1.17,1.17,0,0,1-.22-1.62h0A1.19,1.19,0,0,1,9,7.84l4.36,4.29a1.17,1.17,0,0,1,.23,1.62h0A1.2,1.2,0,0,1,12,13.55Z"/><path class="cls-1" d="M4.78,0A4.78,4.78,0,0,0,0,4.77a4.8,4.8,0,0,0,9.59,0A4.78,4.78,0,0,0,4.78,0Zm0,8.52A3.77,3.77,0,1,1,8.6,4.74,3.78,3.78,0,0,1,4.83,8.52Z"/></g></g></svg>