<svg xmlns="http://www.w3.org/2000/svg" xmlns:xlink="http://www.w3.org/1999/xlink" viewBox="0 0 41.37 56.72"><defs><style>.cls-1{fill:none;}.cls-2{isolation:isolate;}.cls-3{clip-path:url(#clip-path);}.cls-4{fill:#e5c7a4;}.cls-5{fill:#d6b491;}.cls-6{fill:#cea98b;opacity:0.1;mix-blend-mode:multiply;}.cls-7{fill:#fff;}.cls-8{fill:#db3c40;}.cls-9{fill:#40211e;}</style><clipPath id="clip-path" transform="translate(-13.93 -11.93)"><path class="cls-1" d="M69.23,34.61A34.62,34.62,0,1,0,34.61,69.23,34.62,34.62,0,0,0,69.23,34.61Z"/></clipPath></defs><title>users-card-grid</title><g class="cls-2"><g id="Capa_2" data-name="Capa 2"><g id="Capa_1-2" data-name="Capa 1"><g class="cls-3"><path class="cls-4" d="M51.19,52.18C49,48,34.61,45.3,34.61,45.3S20.27,48,18,52.18C16.39,58,15,65.49,15,65.49H54.22S53.29,57.5,51.19,52.18Z" transform="translate(-13.93 -11.93)"/><path class="cls-5" d="M34.61,45.3S49,48,51.19,52.18c2.1,5.32,3,13.31,3,13.31H34.61Z" transform="translate(-13.93 -11.93)"/><rect class="cls-4" x="16.78" y="24.79" width="7.81" height="13.07"/><rect class="cls-5" x="20.69" y="24.79" width="3.9" height="13.07"/><path class="cls-6" d="M30.71,42.77c.7,2,3.54,3.18,5.62,3.18a7.08,7.08,0,0,0,2.19-.36V36.72H30.71Z" transform="translate(-13.93 -11.93)"/><path class="cls-4" d="M44.66,28.47c0-8.17-4.5-12.81-10-12.81s-10,4.64-10,12.81,4.5,14.78,10,14.78S44.66,36.63,44.66,28.47Z" transform="translate(-13.93 -11.93)"/><path class="cls-5" d="M43.13,34.13c-1.82-.2-3.05-2.29-2.74-4.65s2-4.13,3.85-3.93,3,2.29,2.73,4.65S45,34.33,43.13,34.13Z" transform="translate(-13.93 -11.93)"/><path class="cls-4" d="M22.32,30.2c-.3-2.36.92-4.45,2.74-4.65s3.55,1.56,3.85,3.93-.92,4.45-2.74,4.65S22.63,32.57,22.32,30.2Z" transform="translate(-13.93 -11.93)"/><path class="cls-5" d="M44.66,28.47c0-8.17-4.5-12.81-10-12.81V43.25C40.16,43.25,44.66,36.63,44.66,28.47Z" transform="translate(-13.93 -11.93)"/><polygon class="cls-7" points="8.5 56.72 20.69 56.72 32.83 56.72 32.83 43.76 8.5 43.76 8.5 56.72"/><path class="cls-8" d="M31.18,68.65,28.91,46.36c-5.08.93-10.83,4.3-11.95,6.78-1.65,6.83-3,15.51-3,15.51Z" transform="translate(-13.93 -11.93)"/><path class="cls-8" d="M39,68.65H55.3s-.93-9.31-3-15.52c-1.83-3.8-9.06-5.86-11.59-6.72Z" transform="translate(-13.93 -11.93)"/><path class="cls-9" d="M34.59,19.67s-6.42-2.88-9.66,5.76c0,0-4.32,5.4,1.08,17.29l-9.18-5.94S14.67,13,34.11,11.93" transform="translate(-13.93 -11.93)"/><path class="cls-9" d="M34,19.67s6.42-2.88,9.66,5.76c0,0,4.32,5.4-1.08,17.29l9.18-5.94S53.56,13,34.11,11.93" transform="translate(-13.93 -11.93)"/><polygon class="cls-9" points="14.24 7.02 13.16 11.34 16.41 11.34 16.78 7.44 17.48 11.34 19.65 11.34 20.66 7.74 20.73 11.34 25.05 11.34 24.01 7.02 26.13 11.34 29.02 11.34 26.13 5.94 14.24 7.02"/></g></g></g></g></svg>