<svg xmlns="http://www.w3.org/2000/svg" viewBox="0 0 182.63 184.83"><defs><style>.cls-1{fill:#b3b3b3;}.cls-2{fill:none;stroke:#fff;stroke-miterlimit:10;}.cls-3{fill:#666;}</style></defs><title>user-picture</title><g id="Capa_2" data-name="Capa 2"><g id="Capa_1-2" data-name="Capa 1"><circle class="cls-1" cx="91.32" cy="91.32" r="91.32"/><circle class="cls-2" cx="91.32" cy="52.72" r="14.73"/><path class="cls-2" d="M116.76,87.54c0-8.14-11.39-14.73-25.44-14.73S65.87,79.4,65.87,87.54c0,.24,0,.48.07.72a6,6,0,0,0-.07.61v8a8.06,8.06,0,0,0,8,8c.2,0,.38,0,.57,0a5.44,5.44,0,0,0,.58,0h32.51a5.44,5.44,0,0,0,.58,0c.19,0,.38,0,.57,0a8.06,8.06,0,0,0,8-8v-8c0-.21-.05-.41-.06-.61S116.76,87.78,116.76,87.54Z"/><path class="cls-3" d="M4.69,121.31a91.33,91.33,0,0,0,174,0Z"/></g></g></svg>