<svg xmlns="http://www.w3.org/2000/svg" viewBox="-1 0 18.00 20.00"><defs><style>.cls-1{fill:none;stroke:#fff;stroke-miterlimit:10;}</style></defs><title>Recurso 8</title><g id="Capa_2" data-name="Capa 2"><g id="Capa_1-2" data-name="Capa 1"><circle class="cls-1" cx="7.7" cy="4.67" r="4.17"/><path class="cls-1" d="M14.9,14.52c0-2.3-3.22-4.17-7.2-4.17S.5,12.22.5,14.52a1.23,1.23,0,0,0,0,.2,1.1,1.1,0,0,0,0,.18v2.27a2.28,2.28,0,0,0,2.27,2.28l.17,0,.16,0h9.2l.16,0,.17,0a2.28,2.28,0,0,0,2.27-2.28V14.9a1.1,1.1,0,0,0,0-.18A1.23,1.23,0,0,0,14.9,14.52Z"/></g></g></svg>