<svg xmlns="http://www.w3.org/2000/svg" viewBox="0 0 15.52 20.42"><defs><style>.cls-1{fill:#7f7f7f;}</style></defs><title>user-movil</title><g id="Capa_2" data-name="Capa 2"><g id="Capa_1-2" data-name="Capa 1"><circle class="cls-1" cx="7.76" cy="4.49" r="4.49"/><path class="cls-1" d="M15.52,15.11c0-2.48-3.48-4.49-7.76-4.49S0,12.63,0,15.11a1.64,1.64,0,0,0,0,.22,1.11,1.11,0,0,0,0,.19V18a2.45,2.45,0,0,0,2.45,2.45l.18,0,.17,0h9.92l.17,0,.18,0A2.45,2.45,0,0,0,15.52,18V15.52c0-.07,0-.13,0-.19S15.52,15.18,15.52,15.11Z"/></g></g></svg>