<svg xmlns="http://www.w3.org/2000/svg" viewBox="0 0 20.67 21.64"><defs><style>.cls-1{fill:#7f7f7f;}</style></defs><title>users-movil</title><g id="Capa_2" data-name="Capa 2"><g id="Capa_1-2" data-name="Capa 1"><path class="cls-1" d="M-282.94-62.36h20.61l-.29-5.3s-.45-3.39-3.39-3.09c0,0-4.71-2.06-4.42-2.36v-.59s2.07-2.06,2.07-3.53h.29V-79h-.59v-2.06A3.94,3.94,0,0,0-272.78-84a4.24,4.24,0,0,0-4.12,3.53V-79h-.3v1.77h.3s.59,2.65,1.76,3.24v.88a41.75,41.75,0,0,1-6.18,3S-283.38-69.87-282.94-62.36Z" transform="translate(283 84)"/></g></g></svg>